# xmcd
#
# Track frame offsets: 
#        150
#        2988
#        5494
#        7315
#        11615
#        13977
#        16172
#        20763
#        23957
#        29196
#        41434
#        44948
#        53574
#        60516
#        62381
#        73093
#        76364
#        93614
#        96658
#        99370
#        102368
#        107523
#        110347
#        119310
#        122016
#        124998
#        128333
#        132872
#        150362
#        159086
#        167333
#        173867
#        175638
#        176723
#        178102
#        184395
#        195614
#        198207
#
# Disc length: 2834 seconds
#
# Revision: 0
# Processed by: cddbd v1.5.2PL0 Copyright (c) Steve Scherf et al.
# Submitted via: ExactAudioCopy v1.0b1
#
DISCID=fb0b1026
DTITLE=Johnny Cash - The Gospel Road [CD2]
DYEAR=1973
DGENRE=Gospel
TTITLE0=He Turned The Water Into Wine (Part 3)
TTITLE1=He Turned The Water Into Wine (Part 2)
TTITLE2=He Turned The Water Into Wine (Part 3)
TTITLE3=Feeding The Multitude
TTITLE4=He Turned The Water Into Wine (Part 4)
TTITLE5=More Jesus Teaching
TTITLE6=The Living Water And The Bread Of Life
TTITLE7=Gospel Road (Part 4)
TTITLE8=Jesus And Children
TTITLE9=Children
TTITLE10=Four Months To Live
TTITLE11=Help (Part 3)
TTITLE12=Help (Part 4)
TTITLE13=Raising Of Lazarus
TTITLE14=Jesus' Second Coming
TTITLE15=Jesus' Entry Into Jerusalem
TTITLE16=Burden Of Freedom
TTITLE17=Jesus Wept
TTITLE18=Burden Of Freedom (Chorus)
TTITLE19=Jesus Cleanses Temple Again
TTITLE20=Feast Of The Passover
TTITLE21=Lord, Is It I
TTITLE22=The Last Supper
TTITLE23=John 14: 1-3
TTITLE24=And Now He's Alone
TTITLE25=Agony In Gethsemane
TTITLE26=Jesus Before Caliaphas, Pilate, And Herod
TTITLE27=Burden Of Freedom
TTITLE28=Crucifixion
TTITLE29=Jesus' Last Words
TTITLE30=Jesus' Death
TTITLE31=Earthquake And Darkness
TTITLE32=He Is Risen
TTITLE33=Mary Magdalene Returns To Galilee
TTITLE34=Jesus Appears To Disciples
TTITLE35=The Great Comission
TTITLE36=Ascension, Amen Chorus
TTITLE37=Jesus Was A Carpenter (Part 2)
EXTD=
EXTT0=
EXTT1=
EXTT2=
EXTT3=
EXTT4=
EXTT5=
EXTT6=
EXTT7=
EXTT8=
EXTT9=
EXTT10=
EXTT11=
EXTT12=
EXTT13=
EXTT14=
EXTT15=
EXTT16=
EXTT17=
EXTT18=
EXTT19=
EXTT20=
EXTT21=
EXTT22=
EXTT23=
EXTT24=
EXTT25=
EXTT26=
EXTT27=
EXTT28=
EXTT29=
EXTT30=
EXTT31=
EXTT32=
EXTT33=
EXTT34=
EXTT35=
EXTT36=
EXTT37=
PLAYORDER=
